<?xml version="1.0" encoding="UTF-8" standalone="no"?>
<!-- Created with Inkscape (http://www.inkscape.org/) -->

<svg
   width="300"
   height="300"
   viewBox="0 0 79.374998 79.375"
   version="1.1"
   id="svg1"
   sodipodi:docname="logo.svg"
   inkscape:version="1.3 (0e150ed6c4, 2023-07-21)"
   xmlns:inkscape="http://www.inkscape.org/namespaces/inkscape"
   xmlns:sodipodi="http://sodipodi.sourceforge.net/DTD/sodipodi-0.dtd"
   xmlns="http://www.w3.org/2000/svg"
   xmlns:svg="http://www.w3.org/2000/svg">
  <sodipodi:namedview
     id="namedview1"
     pagecolor="#ffffff"
     bordercolor="#000000"
     borderopacity="0.25"
     inkscape:showpageshadow="2"
     inkscape:pageopacity="0.0"
     inkscape:pagecheckerboard="0"
     inkscape:deskcolor="#d1d1d1"
     inkscape:document-units="mm"
     inkscape:zoom="2.1041947"
     inkscape:cx="330.53025"
     inkscape:cy="190.3341"
     inkscape:window-width="2560"
     inkscape:window-height="1377"
     inkscape:window-x="1912"
     inkscape:window-y="-8"
     inkscape:window-maximized="1"
     inkscape:current-layer="layer1" />
  <defs
     id="defs1" />
  <g
     inkscape:label="Слой 1"
     inkscape:groupmode="layer"
     id="layer1">
    <path
       style="fill:#ffc0cb;fill-opacity:0.98340303;stroke-width:0.264583"
       id="path125"
       d="m 29.993227,-0.20620677 c 0.912635,1.20967307 1.90695,2.35751227 2.865398,3.53155407 2.73417,3.4934773 5.453658,6.9987587 8.161192,10.5133157 1.793277,2.393535 3.752874,4.659318 5.535837,7.060341 0.555146,0.747584 1.285536,1.805161 1.824117,2.576756 1.302369,1.832677 2.511285,3.727941 3.703659,5.633071 0.227226,0.511297 0.825052,1.093682 0.944655,1.650664 -0.101394,-0.133953 -0.529371,0.147584 -0.645859,0.212257 -0.376169,0.41842 -0.749223,0.844782 -1.108898,1.278966 -0.266967,0.231381 -0.40156,0.563684 -0.613947,0.837065 -0.147595,0.189979 -0.206854,0.229812 -0.388117,0.396809 -0.355571,0.354788 -0.779719,0.63599 -1.21289,0.88723 -0.397703,0.19648 -0.766741,0.433599 -1.136499,0.678638 -0.384596,0.342675 -0.571841,0.431188 -1.056941,0.570891 -0.801651,0.292889 -1.600656,0.593707 -2.378814,0.944803 -1.092742,0.463222 -2.024327,1.183646 -2.979719,1.870303 -0.887256,0.646057 -1.801434,1.258551 -2.647291,1.959755 -0.442277,0.366641 -0.867031,0.753928 -1.302514,1.128612 -1.158246,0.92175 -2.323325,1.851433 -3.58126,2.635393 -0.09745,0.01323 -0.201782,0.078 -0.292341,0.03966 -0.07797,-0.03301 -0.204957,-0.257302 -0.129773,-0.218358 1.106191,0.572982 2.141469,1.277848 3.254711,1.837005 0.06978,0.03505 -0.04665,-0.150492 -0.05207,-0.228388 -0.01326,-0.190691 0.03803,-0.412523 0.07032,-0.596855 0.217755,-0.778214 0.421881,-1.554695 0.541671,-2.355147 0.122568,-0.717481 0.07033,-1.420717 -0.246518,-2.077174 -1.080651,-1.285487 -0.33733,-0.453547 -3.871291,-2.321351 -0.20579,-0.108768 -0.85317,-0.08476 -1.026308,-0.08293 -0.845621,0.0089 -0.693888,0.01439 -1.588674,0.09748 -0.366689,0.06558 -0.734563,0.124854 -1.100066,0.196754 -1.034598,0.203523 -1.532165,0.306888 -2.544768,0.663811 -1.495553,0.527153 -2.904096,1.255937 -4.318206,1.964581 -2.355792,1.122635 -4.560746,2.519728 -6.831186,3.797814 -3.568902,2.009023 0.108409,-0.128747 -3.442878,1.956879 -1.185139,0.682062 -2.372327,1.36448 -3.578773,2.008659 -0.1306489,0.06976 -0.7102631,0.4041 -0.8595823,0.336928 -0.066215,-0.02979 -0.02781,-0.142526 -0.041715,-0.213789 1.107218,0.656884 2.1693903,1.396437 3.3216533,1.970646 0.08596,0.04283 0.04195,-0.187928 0.07415,-0.278408 0.197212,-0.554154 0.487079,-1.073761 0.768396,-1.587862 0.446159,-0.887963 0.970209,-1.729928 1.471789,-2.586633 0.452134,-0.815777 0.795547,-1.682954 1.041763,-2.581079 0.34529,-1.530901 0.176683,-3.120478 0.07324,-4.669719 C 14.528528,38.570442 14.421216,37.900268 14.247824,37.24584 13.843532,35.719935 13.081026,33.567999 12.526027,32.123009 11.910697,30.520944 10.947819,28.240635 10.202156,26.697426 9.7823193,25.828533 9.3140439,24.983883 8.8699852,24.12711 7.674158,22.059987 7.5057407,21.660129 6.1715853,19.756747 5.7766714,19.19334 4.4039576,17.334825 3.9916719,16.784003 L 1.5939831,15.977465 0.02222188,15.600242 c -0.68353524,-0.164048 2.46018702,2.159204 2.87549632,2.726346 1.3785255,1.882502 1.5624987,2.309232 2.7851536,4.365694 0.4504672,0.852202 0.9277057,1.690783 1.3514012,2.556608 0.6955711,1.421403 1.7544177,3.905992 2.3164255,5.39045 0.5059465,1.336381 1.2686955,3.575531 1.6083745,5.008731 0.146768,0.619258 0.215117,1.254512 0.322676,1.881765 0.06103,1.495829 0.180618,3.024497 -0.130655,4.500975 -0.232592,0.866695 -0.556414,1.70412 -0.984154,2.494531 -0.5037543,0.860399 -1.0279042,1.70774 -1.4860239,2.594089 -0.2867607,0.538329 -0.5742025,1.074883 -0.81856,1.634363 -0.050669,0.116012 -0.2374508,0.269864 -0.1414952,0.352438 1.0222966,0.879726 2.19281,1.570868 3.2892151,2.356303 0.385137,-0.126196 0.67914,-0.317387 1.025775,-0.537319 1.132013,-0.718233 2.274891,-1.418156 3.427544,-2.103091 3.582784,-2.089965 -0.16268,0.08023 3.4342,-1.959483 2.269176,-1.286798 4.498147,-2.65036 6.871827,-3.743081 0.996227,-0.484296 1.907656,-0.94833 2.932765,-1.366507 1.622465,-0.661861 3.316748,-1.100997 5.064133,-1.258218 0.7135,-0.03681 1.455725,-0.106667 2.16213,0.05315 0.140552,0.0318 0.529963,0.219702 0.407975,0.142994 -2.52258,-1.586275 -4.207434,-2.321279 -2.838456,-1.71513 0.05461,0.05832 0.11997,0.108173 0.16383,0.174953 0.31563,0.480547 0.296651,1.11428 0.23299,1.655049 -0.108609,0.796226 -0.300805,1.566944 -0.547235,2.331434 -0.0231,0.112315 -0.205746,0.9677 -0.133236,1.023096 1.093612,0.835469 2.261846,1.571551 3.438593,2.285177 0.08261,0.0501 0.195943,0.0019 0.288788,-0.02474 0.115014,-0.03311 0.216857,-0.10134 0.325286,-0.152011 1.217687,-0.858755 2.404454,-1.765374 3.558461,-2.707513 0.06624,-0.05726 1.224002,-1.058838 1.291405,-1.114036 0.848328,-0.694735 1.768557,-1.293907 2.659478,-1.930968 0.949502,-0.668147 1.893712,-1.34088 2.978583,-1.778799 0.774312,-0.341805 1.567733,-0.642258 2.37757,-0.889114 0.431681,-0.142661 0.780915,-0.372412 1.128416,-0.662438 0.36127,-0.247779 0.749491,-0.442597 1.125744,-0.665538 0.441195,-0.285355 0.876398,-0.582424 1.241814,-0.964107 0.198578,-0.189823 0.27863,-0.25106 0.443481,-0.465992 0.202523,-0.264054 0.338455,-0.578776 0.587952,-0.807728 0.189124,-0.228497 0.389856,-0.444966 0.584499,-0.668658 0.0514,-0.05907 0.254905,-0.306035 0.321815,-0.367138 0.0404,-0.03689 0.08954,-0.06287 0.134311,-0.09431 0.299479,-0.136308 0.635786,-0.204962 0.825643,-0.495792 0.02222,-0.06545 0.05925,-0.127619 0.06668,-0.196337 0.058,-0.536194 -0.758872,-1.336551 -0.966525,-1.793997 -1.256853,-1.912011 -2.493624,-3.83795 -3.821679,-5.702023 -0.528428,-0.7475 -1.334357,-1.898572 -1.876017,-2.617393 C 48.105197,19.927114 46.084714,17.6606 44.269204,15.233787 41.600614,11.776659 38.961874,8.2965511 36.332908,4.8095452 35.432685,3.6620407 34.529712,2.5165271 33.610081,1.3854639 Z"
       sodipodi:nodetypes="cccscccccsccccccsccsssscccsccsscscsscssccccssscsccsscsssccccsscscscscsccccccsccccccccccscsscccccscccc" />
    <path
       style="fill:#ffc0cb;fill-opacity:0.98340303;stroke-width:0.264583"
       id="path126"
       d="m 36.360107,41.454175 c -1.005972,-2.18663 -2.122789,-4.356481 -3.579741,-6.282859 -0.460229,-0.608512 -0.977963,-1.171318 -1.466945,-1.756979 -2.263537,-2.489062 -5.033415,-4.400193 -7.950492,-6.039638 -4.886009,-2.746016 -3.601756,-2.093823 -6.886408,-3.647223 0,0 2.859894,2.277353 2.859894,2.277353 v 0 c 0.586931,0.277443 1.116625,0.751642 1.760792,0.832329 0.432203,0.05414 -1.469072,-0.926904 -1.072768,-0.746146 0.738275,0.336734 1.418175,0.790244 2.10762,1.218152 2.138195,1.327084 4.156918,2.835093 5.863183,4.697476 0.484923,0.570272 0.999977,1.116238 1.454769,1.710817 1.406663,1.839026 2.464313,3.935566 3.32872,6.074585 z" />
    <path
       style="fill:#ffc0cb;fill-opacity:0.98340303;stroke-width:0.264583"
       id="path127"
       d="m 43.426792,28.812336 c -1.488776,0.313206 -2.993289,0.152149 -4.449469,-0.250896 -0.436417,-0.120793 -0.861493,-0.279334 -1.29224,-0.419002 -0.413639,-0.200507 -1.628606,-0.848493 -1.240915,-0.60152 0.65936,0.420031 1.31291,0.889675 2.059139,1.122754 0.406796,0.127058 -0.684369,-0.509849 -1.002996,-0.792879 -0.572855,-0.508855 -1.035198,-1.030209 -1.45364,-1.669901 -0.174521,-0.2668 -0.309856,-0.557269 -0.464782,-0.835903 -0.410954,-0.991454 -0.237932,-0.507932 -0.530593,-1.446389 0,0 -3.502634,-1.654544 -3.502634,-1.654544 v 0 c 0.303295,0.992364 0.126664,0.480417 0.540094,1.532283 0.412385,0.798966 0.503703,1.073366 1.089385,1.789974 0.394073,0.482165 1.304092,1.390963 1.819074,1.717758 3.595071,2.281343 3.164673,2.033061 5.661401,3.140186 0.442846,0.134691 0.880358,0.288351 1.328533,0.404074 1.555835,0.401738 3.098266,0.497417 4.680961,0.215985 z" />
    <path
       style="fill:#ffc0cb;fill-opacity:0.98340303;stroke-width:0.264583"
       id="path145"
       d="m 70.12125,51.345808 c -0.820333,-0.01011 -1.004528,-0.02177 -1.943627,0.02373 -0.582435,0.02822 -3.706108,0.245854 -4.035041,0.267156 -2.281097,0.147722 -3.73045,0.228547 -6.043073,0.363733 -2.925407,0.15031 -5.853466,0.241038 -8.782206,0.290306 -0.682146,0.01148 -1.36445,0.01236 -2.046581,0.02476 -0.520959,0.0095 -1.049379,-0.04912 -1.562602,0.04082 -0.489278,0.08575 -0.940459,0.320191 -1.41069,0.480288 -0.445569,0.293341 -0.92406,0.541938 -1.336707,0.880028 -1.582274,1.2964 -2.718866,3.081229 -3.862596,4.746157 -0.83498,1.215477 -1.656006,2.440495 -2.489727,3.656838 -1.59308,2.274339 -3.00547,4.671414 -4.652309,6.907995 -0.718907,0.9656 -1.449622,1.922523 -2.188061,2.873309 -0.246814,0.303189 -0.530043,0.572818 -0.793041,0.861274 -0.06889,0.07556 -0.279411,0.283946 -0.287007,0.414385 -0.0072,0.12318 0.04704,0.242253 0.07056,0.363379 1.307828,0.650894 2.562612,1.421556 3.923488,1.952681 0.320371,0.125034 0.687824,-0.0075 1.031542,-0.01881 0.536146,-0.01765 1.071808,-0.04797 1.607867,-0.06805 2.778448,-0.104084 5.557187,-0.199996 8.335574,-0.306448 5.803341,-0.369245 11.610535,-0.673413 17.424958,-0.781802 1.435968,-0.0114 2.874886,-0.06553 4.30558,0.08268 1.132602,0.08232 2.266956,0.135821 3.400184,0.212923 0.173183,-0.01558 0.351015,-0.004 0.519552,-0.04677 0.89739,-0.227869 1.367436,-1.133499 1.796439,-1.864913 0.151371,-0.258074 0.296145,-0.519964 0.444219,-0.779949 0.730057,-1.328862 1.590154,-2.579629 2.413191,-3.851402 0.388826,-0.536181 0.666829,-1.128789 0.913815,-1.738474 0.0506,-0.109842 0.242475,-0.667848 0.110599,-0.747802 -1.153965,-0.699619 -2.34813,-1.330675 -3.522194,-1.996012 -0.297696,0.04099 -0.60878,0.122778 -0.911776,0.104355 -0.07276,-0.0044 -0.143288,-0.0269 -0.214931,-0.04035 -0.395658,-0.213685 -0.796989,-0.411853 -1.236023,-0.51431 -0.09455,-0.01765 -0.188401,-0.0395 -0.283638,-0.05291 -0.235302,-0.03314 -0.473028,-0.0472 -0.70834,-0.08027 -0.448979,-0.0631 -0.894784,-0.139962 -1.34461,-0.198228 -1.129675,-0.130212 -2.263994,-0.184005 -3.399208,-0.120476 -1.098145,0.05329 -2.185691,0.219477 -3.279642,0.319201 -1.313956,0.0035 -2.627286,-0.05621 -3.940681,-0.0905 -1.271458,-0.08006 -2.548308,-0.01336 -3.818861,0.06164 -1.096441,0.107048 -2.197086,0.05054 -3.295986,0.06441 -0.955616,0.07988 -1.911908,0.139977 -2.870427,0.169425 -0.802878,0.03866 -1.60125,0.123741 -2.401303,0.196131 -0.806833,0.117147 -1.620819,0.160435 -2.434762,0.187923 -1.134676,0.01701 -2.26772,0.07872 -3.401983,0.112038 -0.694968,0.01722 -1.390174,0.02053 -2.085308,0.01603 0,0 3.198717,2.318483 3.198717,2.318483 v 0 c 0.671531,-0.01998 1.342609,-0.05213 2.013921,-0.07818 1.142405,-0.04225 2.28468,-0.08645 3.427981,-0.09459 0.824791,-0.03135 1.646822,-0.09107 2.466179,-0.19307 0.788733,-0.07661 1.576443,-0.160128 2.368796,-0.19328 0.953791,-0.04531 1.90637,-0.107884 2.859444,-0.165227 1.096624,-0.01627 2.194513,0.01384 3.288348,-0.09073 1.25862,-0.07016 2.52014,-0.131114 3.779941,-0.05024 1.329695,0.03452 2.660528,0.114884 3.990459,0.07055 1.088223,-0.101042 2.171051,-0.266087 3.264355,-0.306086 1.127344,-0.02935 2.255112,0.02732 3.372289,0.188095 0.783979,0.121176 1.57885,0.214212 2.346089,0.416761 0.424844,0.166129 0.834377,0.409567 1.295302,0.450318 0.31631,-0.0041 0.174033,0.0013 0.480074,-0.01622 0.156548,-0.0089 0.352216,-0.04467 0.506946,0.0019 0.03529,0.01061 0.06437,0.03589 0.09656,0.05383 -1.100553,-0.638159 -2.218703,-1.246894 -3.301659,-1.914475 -0.05094,-0.0314 0.198107,-0.05424 0.201121,-0.05175 0.05146,0.04262 -0.0066,0.134742 -0.02553,0.198824 -0.01442,0.0488 -0.03124,0.09687 -0.04685,0.145301 -0.205761,0.599887 -0.430845,1.187169 -0.799753,1.712307 -0.785752,1.298834 -1.559158,2.605161 -2.343288,3.904972 -0.383056,0.636148 -0.98485,1.815039 -1.685676,2.155806 -0.321815,0.15648 -0.563994,0.127455 -0.910622,0.140049 -1.142267,-0.06263 -2.284799,-0.131072 -3.423568,-0.241519 -1.359641,-0.09129 -2.713744,0.07268 -4.071199,0.146637 -5.704832,0.369956 -11.407664,0.797931 -17.121804,0.996093 -1.090271,0.0254 -2.180362,0.06035 -3.270813,0.07617 -1.731677,0.02514 -3.632761,0.01744 -5.376865,-0.0037 -0.571929,-0.0069 -1.144212,-0.0061 -1.715633,-0.03117 -0.37134,-0.01632 -1.376897,-0.353028 -1.111207,-0.09309 0.802417,0.78505 1.899983,1.196147 2.849975,1.794222 -0.09741,0.04487 -0.185484,0.124354 -0.292243,0.134598 -0.0365,0.0035 7.94e-4,-0.07653 0.01894,-0.10837 0.04265,-0.07467 0.10386,-0.137179 0.158999,-0.203169 0.156932,-0.187817 0.328628,-0.362987 0.482565,-0.553405 0.09867,-0.118247 0.193474,-0.239657 0.290214,-0.359484 0.720013,-0.968293 1.465096,-1.919808 2.132848,-2.925476 0.564505,-0.865812 1.082009,-1.753394 1.610707,-2.641489 0.890921,-1.496552 1.806562,-2.978484 2.757114,-4.437989 0.683739,-1.01908 1.776482,-2.659491 2.477138,-3.655467 1.144587,-1.627013 2.314784,-3.332562 3.925012,-4.545433 0.407368,-0.306843 0.874101,-0.525693 1.31115,-0.788541 0.447273,-0.136993 0.881769,-0.326273 1.341819,-0.41098 0.323979,-0.05965 3.344325,-0.202729 3.406203,-0.205835 2.880778,-0.144555 5.762424,-0.270012 8.644046,-0.39643 3.530201,-0.153861 2.807592,-0.133737 6.213904,-0.239649 2.108512,-0.06556 4.238175,-0.203071 6.339554,0.05162 z" />
    <path
       style="fill:#ffc0cb;fill-opacity:0.98340303;stroke-width:0.264583"
       id="path146"
       d="m 43.989188,52.277406 c -1.156729,0.122949 -2.297822,0.357608 -3.443044,0.555943 -0.962176,0.14502 -1.932033,0.267798 -2.906549,0.276727 -0.389794,0.0036 -0.941972,-0.02217 -1.332555,-0.03715 -1.186863,-0.04347 -2.371442,-0.127886 -3.557516,-0.185177 -0.999281,-0.02294 -1.996974,0.06717 -2.994612,0.11511 -0.793809,0.08168 -1.591175,-0.03158 -2.385095,-0.0065 -0.268036,0.0085 -0.535048,0.03719 -0.802574,0.05578 -1.614243,0.0703 -3.229046,0.05155 -4.844057,0.03585 -1.097948,0.01175 -2.189466,-0.117626 -3.281173,-0.215064 -0.710758,-0.04191 -1.41762,-0.121134 -2.128263,-0.165772 -0.509712,-0.03453 -1.020507,-0.04539 -1.531195,-0.0526 -0.173654,0.0029 -0.579074,0.02249 -0.721215,0.137631 -0.05157,0.04177 -0.08933,0.09817 -0.133994,0.147257 -0.183591,0.252108 -0.284053,0.554177 -0.380569,0.84823 -0.159953,0.377746 -0.252359,0.774467 -0.286016,1.182068 -0.0022,0.408856 0.008,0.820291 0.08494,1.222455 0.0583,0.206224 0.08514,0.352909 0.201887,0.5403 0.345271,0.554178 0.930065,0.931603 1.445235,1.306507 1.728396,1.10063 1.366668,0.883537 4.551686,2.644053 0.349079,0.192953 1.104942,0.47998 1.486217,0.590883 0.63003,0.183261 1.046628,0.231505 1.694911,0.338339 0.907913,0.212217 1.838286,0.309123 2.752753,0.482534 0.06113,0.01159 1.988107,0.441325 2.05334,0.454829 0.335619,0.06948 0.673177,0.129228 1.009767,0.193839 1.854462,0.369295 3.6439,0.984263 5.428128,1.59775 1.162971,0.432435 2.374334,0.719966 3.521903,1.193236 0.341617,0.141576 0.699474,0.235988 1.035367,0.391742 0.06813,0.0316 0.26469,0.14196 0.199758,0.10422 -3.383108,-1.966381 -3.633261,-0.678696 -3.244432,-2.164874 -0.833427,0.25046 0.462598,-0.146002 -0.954754,0.332502 -0.321273,0.108463 -0.648364,0.199062 -0.970134,0.306036 -2.152537,0.715618 -0.518115,0.203676 -2.966212,1.058791 -0.639676,0.223435 -1.285119,0.429998 -1.927678,0.644998 -4.800467,1.612522 -9.56993,3.320185 -14.323545,5.066009 -2.589682,0.962636 -5.170636,1.965719 -7.8434497,2.677446 -0.1742148,0.03989 -0.34843,0.07979 -0.5226449,0.119676 0,0 3.1900791,2.19147 3.1900791,2.19147 v 0 c 0.1640652,-0.05153 0.3281304,-0.103064 0.4921959,-0.154596 2.5464636,-0.870331 5.0171246,-1.937605 7.5182466,-2.927149 4.731335,-1.838206 9.520052,-3.531894 14.377281,-5.008669 1.238247,-0.381809 2.470258,-0.783793 3.710347,-1.159573 1.041789,-0.31569 2.103538,-0.549812 3.146264,-0.859036 0.139565,-0.04139 0.275534,-0.09405 0.4133,-0.141076 0.09056,-0.128071 0.396288,-0.288964 0.271666,-0.384209 -1.88144,-1.437994 -2.864801,-1.846397 -4.659811,-2.492226 C 33.293502,62.72772 32.119588,62.423822 30.979409,62.015427 29.196352,61.417713 27.405346,60.82947 25.552777,60.48286 24.522321,60.27897 23.499933,60.031383 22.468476,59.834081 21.549543,59.6583 20.61941,59.536372 19.705153,59.333672 18.825352,59.158713 18.125935,59.004186 17.297902,58.641448 17.05447,58.534807 16.355036,58.152807 16.580641,58.293282 c 0.653817,0.407115 3.924166,2.294515 1.996689,1.162841 -0.500729,-0.355533 -1.007761,-0.688967 -1.4312,-1.137975 -0.05671,-0.06014 -0.121497,-0.11507 -0.164175,-0.185862 -0.04068,-0.06748 -0.05441,-0.147905 -0.08161,-0.221856 -0.08863,-0.373359 -0.119117,-0.749638 -0.129444,-1.13357 -0.0028,-0.372449 0.0873,-0.734991 0.243735,-1.073123 0.08312,-0.224354 0.141318,-0.472811 0.282291,-0.66642 0.219351,-0.06392 0.453549,-0.05879 0.679668,-0.05681 0.497047,0.0039 0.99404,0.01757 1.490128,0.04999 0.701993,0.05068 1.40233,0.121534 2.105517,0.156104 1.081874,0.08115 2.16418,0.183282 3.25056,0.156043 1.608695,0.0026 3.216542,-0.03423 4.824759,-0.06903 1.091983,-0.0021 2.18376,0.07488 3.274989,0.0035 0.976027,-0.06307 1.95354,-0.156337 2.932557,-0.107627 1.182555,0.06939 2.365303,0.134921 3.549557,0.16815 0.507812,0.01098 0.83149,0.02524 1.341313,0.0066 0.981803,-0.03588 1.95819,-0.16872 2.927903,-0.318932 1.161653,-0.198366 2.332218,-0.435258 3.515334,-0.423023 z" />
  </g>
</svg>
